<svg width="51" height="50" viewBox="0 0 51 50" fill="none" xmlns="http://www.w3.org/2000/svg">
<circle cx="25.4375" cy="25" r="24.5" stroke="#3EDDD2"/>
<g clip-path="url(#clip0_389_1582)">
<path d="M37.6 39H12.4C11.6272 38.9991 11.0008 38.3728 11 37.6V20.3333C11 20.1523 11.1046 19.9877 11.2685 19.9108C11.4323 19.834 11.6258 19.8588 11.765 19.9744L23.2156 29.4909C24.2517 30.3466 25.7493 30.3463 26.7851 29.4903L38.2347 19.9744C38.3738 19.8585 38.5675 19.8336 38.7315 19.9105C38.8954 19.9874 39.0001 20.1522 39 20.3333V37.6C38.9992 38.3728 38.3728 38.9991 37.6 39ZM11.9333 21.3279V37.6C11.9337 37.8576 12.1424 38.0663 12.4 38.0666H37.6C37.8576 38.0664 38.0664 37.8576 38.0667 37.6V21.3279L27.381 30.2086C25.9994 31.3504 24.0017 31.3507 22.6197 30.2093L11.9333 21.3279Z" fill="#3EDDD2"/>
<path d="M11.4671 20.8C11.2639 20.8002 11.0839 20.6688 11.0221 20.4751C10.9603 20.2815 11.031 20.0701 11.1969 19.9526L15.3969 16.9752C15.6072 16.8295 15.8956 16.8802 16.0435 17.089C16.1914 17.2978 16.1436 17.5867 15.9364 17.7368L11.7364 20.7141C11.6578 20.77 11.5636 20.8001 11.4671 20.8Z" fill="#3EDDD2"/>
<path d="M38.5329 20.8C38.4364 20.8001 38.3422 20.77 38.2636 20.7141L34.0636 17.7368C33.8564 17.5867 33.8086 17.2978 33.9565 17.089C34.1044 16.8802 34.3929 16.8295 34.6031 16.9752L38.8031 19.9526C38.969 20.0701 39.0397 20.2815 38.9779 20.4751C38.9162 20.6688 38.7362 20.8002 38.5329 20.8Z" fill="#3EDDD2"/>
<path d="M29.3115 14.2667C29.2149 14.2667 29.1206 14.2367 29.0419 14.1808L26.8112 12.5988C25.7757 11.7238 24.2626 11.7147 23.2167 12.5771L20.958 14.1808C20.822 14.2773 20.6448 14.2939 20.4932 14.2243C20.3417 14.1547 20.2388 14.0096 20.2232 13.8435C20.2077 13.6775 20.2819 13.5158 20.418 13.4193L22.6486 11.8373C24.027 10.7103 26.011 10.7193 27.3791 11.8587L29.5818 13.4191C29.7478 13.5366 29.8186 13.7481 29.7568 13.9418C29.695 14.1356 29.5148 14.267 29.3115 14.2667Z" fill="#3EDDD2"/>
<path d="M11.7698 38.748C11.5732 38.7482 11.3975 38.625 11.3306 38.4401C11.2637 38.2551 11.3199 38.0481 11.4712 37.9224L22.1205 29.0744C22.2485 28.9656 22.425 28.934 22.5828 28.9916C22.7406 29.0492 22.8553 29.1871 22.883 29.3528C22.9108 29.5184 22.8474 29.6862 22.717 29.7921L12.0677 38.6401C11.9841 38.7098 11.8787 38.748 11.7698 38.748Z" fill="#3EDDD2"/>
<path d="M38.2292 38.748C38.1205 38.7481 38.0151 38.7099 37.9316 38.6402L27.2823 29.7922C27.1519 29.6863 27.0885 29.5185 27.1163 29.3528C27.1441 29.1872 27.2587 29.0492 27.4165 28.9916C27.5743 28.934 27.7509 28.9657 27.8788 29.0745L38.5279 37.9225C38.6792 38.0482 38.7354 38.2552 38.6685 38.4401C38.6016 38.6251 38.4259 38.7482 38.2292 38.7481V38.748Z" fill="#3EDDD2"/>
<path d="M34.3335 24.2906C34.0758 24.2906 33.8669 24.0817 33.8669 23.824V14.2703C33.8655 14.2801 33.8468 14.2669 33.8155 14.2666H16.1849C16.1642 14.2654 16.144 14.2726 16.1289 14.2867L16.1335 23.824C16.1335 24.0817 15.9246 24.2906 15.6669 24.2906C15.4091 24.2906 15.2002 24.0817 15.2002 23.824V14.2666C15.2153 13.7374 15.6556 13.32 16.1849 13.3333H33.8155C34.3448 13.3201 34.7851 13.7374 34.8002 14.2666V23.824C34.8002 24.0817 34.5913 24.2906 34.3335 24.2906Z" fill="#3EDDD2"/>
</g>
<defs>
<clipPath id="clip0_389_1582">
<rect width="28" height="28" fill="white" transform="translate(11 11)"/>
</clipPath>
</defs>
</svg>
