<svg width="49" height="50" viewBox="0 0 49 50" fill="none" xmlns="http://www.w3.org/2000/svg">
<g filter="url(#filter0_i_1_10)">
<path d="M37.7827 12.7979H40.1636M10.4017 0.893127H38.9732C44.233 0.893127 48.497 5.1571 48.497 10.4169V38.9884C48.497 44.2482 44.233 48.5122 38.9732 48.5122H10.4017C5.1419 48.5122 0.877899 44.2482 0.877899 38.9884V10.4169C0.877899 5.1571 5.1419 0.893127 10.4017 0.893127ZM24.6875 34.2265C19.4276 34.2265 15.1636 29.9625 15.1636 24.7027C15.1636 19.4428 19.4276 15.1788 24.6875 15.1788C29.9473 15.1788 34.2113 19.4428 34.2113 24.7027C34.2113 29.9625 29.9473 34.2265 24.6875 34.2265Z" stroke="#EAFEF9"/>
</g>
<defs>
<filter id="filter0_i_1_10" x="0.377899" y="0.393127" width="48.6191" height="52.6191" filterUnits="userSpaceOnUse" color-interpolation-filters="sRGB">
<feFlood flood-opacity="0" result="BackgroundImageFix"/>
<feBlend mode="normal" in="SourceGraphic" in2="BackgroundImageFix" result="shape"/>
<feColorMatrix in="SourceAlpha" type="matrix" values="0 0 0 0 0 0 0 0 0 0 0 0 0 0 0 0 0 0 127 0" result="hardAlpha"/>
<feOffset dy="4"/>
<feGaussianBlur stdDeviation="5"/>
<feComposite in2="hardAlpha" operator="arithmetic" k2="-1" k3="1"/>
<feColorMatrix type="matrix" values="0 0 0 0 0.282353 0 0 0 0 1 0 0 0 0 0.945098 0 0 0 1 0"/>
<feBlend mode="normal" in2="shape" result="effect1_innerShadow_1_10"/>
</filter>
</defs>
</svg>
