<svg width="51" height="51" viewBox="0 0 51 51" fill="none" xmlns="http://www.w3.org/2000/svg">
<path d="M38.7827 13.7978H41.1636M11.4017 1.89307H39.9732C45.233 1.89307 49.497 6.15702 49.497 11.4169V39.9883C49.497 45.2482 45.233 49.5121 39.9732 49.5121H11.4017C6.14188 49.5121 1.87793 45.2482 1.87793 39.9883V11.4169C1.87793 6.15702 6.14188 1.89307 11.4017 1.89307ZM25.6875 35.2264C20.4276 35.2264 16.1636 30.9624 16.1636 25.7026C16.1636 20.4427 20.4276 16.1788 25.6875 16.1788C30.9473 16.1788 35.2113 20.4427 35.2113 25.7026C35.2113 30.9624 30.9473 35.2264 25.6875 35.2264Z" stroke="#00FFFF"/>
</svg>
