<svg width="69" height="70" viewBox="0 0 69 70" fill="none" xmlns="http://www.w3.org/2000/svg">
<g filter="url(#filter0_d_352_1185)">
<path d="M47.7827 18.7979H50.1636M20.4017 6.89313H48.9732C54.233 6.89313 58.497 11.1571 58.497 16.4169V44.9884C58.497 50.2482 54.233 54.5122 48.9732 54.5122H20.4017C15.1419 54.5122 10.8779 50.2482 10.8779 44.9884V16.4169C10.8779 11.1571 15.1419 6.89313 20.4017 6.89313ZM34.6875 40.2265C29.4276 40.2265 25.1636 35.9625 25.1636 30.7027C25.1636 25.4428 29.4276 21.1788 34.6875 21.1788C39.9473 21.1788 44.2113 25.4428 44.2113 30.7027C44.2113 35.9625 39.9473 40.2265 34.6875 40.2265Z" stroke="#EAFEF9" shape-rendering="crispEdges"/>
</g>
<defs>
<filter id="filter0_d_352_1185" x="0.37793" y="0.393127" width="68.6191" height="68.619" filterUnits="userSpaceOnUse" color-interpolation-filters="sRGB">
<feFlood flood-opacity="0" result="BackgroundImageFix"/>
<feColorMatrix in="SourceAlpha" type="matrix" values="0 0 0 0 0 0 0 0 0 0 0 0 0 0 0 0 0 0 127 0" result="hardAlpha"/>
<feOffset dy="4"/>
<feGaussianBlur stdDeviation="5"/>
<feComposite in2="hardAlpha" operator="out"/>
<feColorMatrix type="matrix" values="0 0 0 0 0.282353 0 0 0 0 1 0 0 0 0 0.945098 0 0 0 1 0"/>
<feBlend mode="normal" in2="BackgroundImageFix" result="effect1_dropShadow_352_1185"/>
<feBlend mode="normal" in="SourceGraphic" in2="effect1_dropShadow_352_1185" result="shape"/>
</filter>
</defs>
</svg>
