<svg width="95" height="43" viewBox="0 0 95 43" fill="none" xmlns="http://www.w3.org/2000/svg">
<g clip-path="url(#clip0_501_310)">
<path d="M22.0151 14.7589C22.0151 14.7589 22.0375 14.7813 22.0151 14.7589L29.0474 25.9568C29.1594 26.1584 29.3385 26.2704 29.5401 26.2704C29.7193 26.2704 29.876 26.1808 29.988 26.0464C29.988 26.0464 36.6844 17.4688 38.3193 16.0355C38.5432 15.8563 39.4615 15.2292 39.6182 15.2068L40.4021 14.8933C40.5365 14.8485 40.6708 14.8261 40.8052 14.7813C41.074 14.7365 41.5219 14.6693 42.0146 14.6693C42.6641 14.6693 43.3807 14.8709 43.4479 14.8933C44.187 15.0725 45.1276 15.6324 45.5755 16.0131L54.2203 25.3074C54.3995 25.5089 54.6682 25.6209 54.937 25.6209C55.5193 25.6209 56.0344 25.2402 56.2135 24.7027L57.5125 20.9402C57.6917 20.4475 57.938 19.798 58.2068 19.1485C59.1026 17.0209 60.4688 15.1173 62.238 13.6391C63.1339 12.8777 64.1193 12.2058 65.1495 11.6683L65.8214 11.3771C68.1505 10.3693 70.4125 9.63027 72.5177 8.21934C72.7417 8.06257 72.9432 7.92819 73.1448 7.79381C73.8615 7.30111 74.9141 5.91257 74.9589 5.82298C83.4917 5.80059 87.0974 5.7334 87.4781 5.7334C87.4781 5.7334 87.5005 5.7558 87.4781 5.7558L76.5714 16.0579L67.5234 18.5886L64.7911 28.4428L59.976 36.5053L53.0333 38.2298L46.0458 30.0105L42.2385 26.4943C42.2385 26.4943 42.2385 26.4943 42.2161 26.4943L35.9453 32.474L31.0182 38.5209L25.6432 38.4089L19.8875 27.323L13.5943 16.349C13.5719 16.3266 13.5495 16.2818 13.5271 16.2594L12.4297 14.7589H22.0151Z" fill="#3EDDD2"/>
<path d="M91.263 5.75574C89.3369 9.33907 86.2015 13.5495 82.6182 15.8115C79.102 18.0063 74.7572 19.0141 72.0249 22.3287C69.4942 25.3969 68.7104 29.4281 67.0307 32.9667C65.3286 36.5724 62.7755 40.2677 59.1249 42.149C56.9525 43.2688 54.3994 43.3359 52.2046 42.2609C50.9057 41.6339 49.2484 40.0886 47.7926 38.5432L43.3583 32.5188L42.9775 32.0037C42.9775 32.0037 42.7312 31.6677 42.7312 31.6453C42.44 31.287 42.2609 31.0406 41.8801 31.0406H41.8577C41.5442 31.0406 41.2979 31.287 41.0739 31.5781C41.0291 31.6453 40.0437 32.9443 40.0437 32.9443L34.3104 40.2229L33.3921 41.3875C32.3619 42.4177 30.9734 43.0224 29.4729 43.0224C27.8827 43.0224 26.4494 42.3505 25.4192 41.2307C25.352 41.1412 25.2848 41.0516 25.1952 40.9844L24.6801 40.3125L14.4005 26.763L5.35254 14.7589H13.6166L22.5301 26.7854L26.2702 31.8245L28.4426 34.7583C28.7338 35.1167 29.0697 35.3854 29.54 35.4302C29.5848 35.4302 29.6296 35.4302 29.652 35.4302C30.0104 35.4302 30.4359 35.1167 30.7718 34.8255C30.8838 34.7135 30.9958 34.6016 31.1077 34.4672L33.3025 31.7125L37.2218 26.7854L38.3416 25.3745L40.2453 22.9781C40.6932 22.5302 41.2755 22.2615 41.9025 22.2391C41.9473 22.2391 41.9921 22.2391 42.0145 22.2391C42.6864 22.2391 43.2463 22.4406 43.739 22.9109C43.8734 23.0453 52.9885 34.4672 53.8171 34.8703C53.9067 34.9151 55.5864 37.1099 57.602 35.2287C59.1025 33.8401 61.5213 28.8234 61.9468 27.3901C63.3578 22.575 65.0598 20.1787 66.1348 18.8349C66.5604 18.2974 67.0531 17.8047 67.5906 17.3344C68.24 16.7745 68.8447 16.3266 69.5166 15.9682C69.6286 15.9234 69.7182 15.8563 69.8301 15.8339L71.2187 15.2964C71.2635 15.274 71.3083 15.274 71.3531 15.2516C71.913 15.05 75.8994 13.3927 77.2432 12.4521C77.7583 12.1162 78.251 11.7354 78.7213 11.3547C80.0426 10.2797 81.2072 9.02553 82.215 7.65938C82.7078 6.98751 82.8869 6.4948 83.3124 5.77813C83.5812 5.75574 88.6203 5.71095 91.263 5.75574Z" fill="#0036BC"/>
</g>
<defs>
<clipPath id="clip0_501_310">
<rect width="94.5104" height="43" fill="white"/>
</clipPath>
</defs>
</svg>
