<svg width="104" height="48" viewBox="0 0 104 48" fill="none" xmlns="http://www.w3.org/2000/svg">
<g clip-path="url(#clip0_434_10314)">
<path d="M24.2258 16.2164C24.2258 16.2164 24.2505 16.241 24.2258 16.2164L31.9642 28.5202C32.0875 28.7416 32.2846 28.8647 32.5064 28.8647C32.7036 28.8647 32.8761 28.7662 32.9993 28.6186C32.9993 28.6186 40.368 19.1939 42.1671 17.619C42.4135 17.4222 43.424 16.7332 43.5965 16.7085L44.459 16.364C44.6069 16.3148 44.7548 16.2902 44.9026 16.241C45.1984 16.1918 45.6912 16.118 46.2334 16.118C46.9481 16.118 47.7367 16.3394 47.8107 16.364C48.624 16.5609 49.659 17.1761 50.1519 17.5944L59.6647 27.8065C59.8619 28.028 60.1576 28.151 60.4533 28.151C61.0941 28.151 61.6609 27.7327 61.8581 27.1421L63.2875 23.0081C63.4846 22.4667 63.7557 21.7531 64.0514 21.0395C65.0372 18.7018 66.5405 16.6101 68.4875 14.986C69.4732 14.1494 70.5576 13.4111 71.6912 12.8206L72.4306 12.5007C74.9936 11.3933 77.4827 10.5813 79.7993 9.031C80.0458 8.85874 80.2676 8.7111 80.4894 8.56345C81.278 8.02209 82.4363 6.49642 82.4856 6.39799C91.8751 6.37339 95.8429 6.29956 96.2619 6.29956C96.2619 6.29956 96.2865 6.32417 96.2619 6.32417L84.26 17.6436L74.3036 20.4243L71.2969 31.2516L65.9984 40.1103L58.3586 42.0051L50.6694 32.9741L46.4799 29.1107C46.4799 29.1107 46.4799 29.1107 46.4552 29.1107L39.5548 35.6809L34.133 42.325L28.2183 42.2019L21.8846 30.0212L14.9595 17.9635C14.9349 17.9389 14.9102 17.8897 14.8856 17.8651L13.678 16.2164H24.2258Z" fill="#3EDDD2"/>
<path d="M100.427 6.32428C98.3072 10.2615 94.857 14.8877 90.9138 17.3731C87.0446 19.7846 82.2636 20.8919 79.257 24.5338C76.4721 27.9051 75.6096 32.3344 73.7612 36.2224C71.8882 40.1842 69.0788 44.2445 65.0617 46.3115C62.6712 47.5419 59.8617 47.6157 57.4465 46.4345C56.0172 45.7455 54.1935 44.0476 52.5916 42.3497L47.7119 35.7303L47.293 35.1643C47.293 35.1643 47.0219 34.7952 47.0219 34.7706C46.7015 34.3769 46.5044 34.1062 46.0854 34.1062H46.0608C45.7157 34.1062 45.4446 34.3769 45.1982 34.6968C45.1489 34.7706 44.0645 36.1978 44.0645 36.1978L37.7555 44.1953L36.7451 45.4748C35.6115 46.6068 34.0835 47.2712 32.4323 47.2712C30.6826 47.2712 29.1053 46.533 27.9717 45.3026C27.8977 45.2042 27.8238 45.1057 27.7252 45.0319L27.1584 44.2937L15.8465 29.4061L5.89014 16.2165H14.984L24.7925 29.4307L28.9081 34.9674L31.2987 38.191C31.619 38.5847 31.9887 38.88 32.5063 38.9292C32.5555 38.9292 32.6048 38.9292 32.6295 38.9292C33.0238 38.9292 33.492 38.5847 33.8617 38.2648C33.9849 38.1418 34.1081 38.0188 34.2314 37.8711L36.6465 34.8444L40.9593 29.4307L42.1916 27.8805L44.2863 25.2475C44.7792 24.7553 45.42 24.46 46.11 24.4354C46.1593 24.4354 46.2086 24.4354 46.2333 24.4354C46.9726 24.4354 47.5887 24.6569 48.1309 25.1736C48.2788 25.3213 58.3091 37.8711 59.2209 38.3141C59.3195 38.3633 61.1679 40.7748 63.3859 38.7078C65.0371 37.1821 67.6987 31.67 68.1669 30.0951C69.7195 24.8045 71.5925 22.1715 72.7754 20.6951C73.2437 20.1045 73.7859 19.5631 74.3773 19.0464C75.092 18.4312 75.7574 17.939 76.4968 17.5453C76.62 17.4961 76.7186 17.4223 76.8418 17.3977L78.3698 16.8071C78.4191 16.7825 78.4683 16.7825 78.5176 16.7579C79.1337 16.5364 83.5205 14.7154 84.9991 13.6819C85.566 13.3128 86.1082 12.8945 86.6257 12.4762C88.0797 11.295 89.3612 9.91698 90.4702 8.41592C91.0124 7.6777 91.2096 7.13633 91.6778 6.34889C91.9736 6.32428 97.5186 6.27507 100.427 6.32428Z" fill="#0036BC"/>
<path d="M8.36871 13.0942L6.21112 0.337697H7.23479L8.91992 10.7004L10.8413 0.526684H11.8334L13.802 10.7162L15.3612 0.337697H16.3691L14.306 13.0942H13.3768L11.3452 2.57403L9.34513 13.0942H8.36871ZM18.0675 13.0942V0.337697H19.2644V13.0942H18.0675ZM21.5272 13.0942V0.337697H22.7241V12.1966H26.3463V13.0942H21.5272ZM27.5407 13.0942V0.337697H30.3125C31.2049 0.337697 31.8978 0.495186 32.3913 0.810162C32.8953 1.11464 33.2522 1.55036 33.4622 2.11731C33.6722 2.68427 33.7772 3.34047 33.7772 4.08592V9.15703C33.7772 9.94448 33.6722 10.6374 33.4622 11.2359C33.2522 11.8238 32.9058 12.2805 32.4228 12.606C31.9398 12.9315 31.2731 13.0942 30.4227 13.0942H27.5407ZM28.7376 12.1966H30.344C31.0159 12.1966 31.5094 12.0601 31.8244 11.7871C32.1393 11.5036 32.3388 11.1204 32.4228 10.6374C32.5068 10.144 32.5488 9.5875 32.5488 8.96805V4.21191C32.5488 3.57146 32.4911 3.036 32.3756 2.60553C32.2706 2.16456 32.0553 1.83384 31.7299 1.61335C31.4149 1.38237 30.9372 1.26688 30.2967 1.26688H28.7376V12.1966ZM40.5584 13.0942L38.4008 0.337697H39.4245L41.1096 10.7004L43.031 0.526684H44.0232L45.9918 10.7162L47.5509 0.337697H48.5588L46.4957 13.0942H45.5665L43.535 2.57403L41.5349 13.0942H40.5584ZM50.2572 13.0942V0.337697H51.4541V13.0942H50.2572ZM53.7169 13.0942V0.337697H54.5831L58.6463 10.2437V0.337697H59.6857V13.0942H58.8353L54.7564 3.07799V13.0942H53.7169ZM61.8989 13.0942V0.337697H64.6707C65.5632 0.337697 66.2561 0.495186 66.7496 0.810162C67.2535 1.11464 67.6105 1.55036 67.8205 2.11731C68.0305 2.68427 68.1355 3.34047 68.1355 4.08592V9.15703C68.1355 9.94448 68.0305 10.6374 67.8205 11.2359C67.6105 11.8238 67.264 12.2805 66.7811 12.606C66.2981 12.9315 65.6314 13.0942 64.781 13.0942H61.8989ZM63.0958 12.1966H64.7022C65.3742 12.1966 65.8676 12.0601 66.1826 11.7871C66.4976 11.5036 66.6971 11.1204 66.7811 10.6374C66.8651 10.144 66.9071 9.5875 66.9071 8.96805V4.21191C66.9071 3.57146 66.8493 3.036 66.7338 2.60553C66.6288 2.16456 66.4136 1.83384 66.0881 1.61335C65.7731 1.38237 65.2954 1.26688 64.655 1.26688H63.0958V12.1966Z" fill="#D3E8E3"/>
</g>
<defs>
<clipPath id="clip0_434_10314">
<rect width="104" height="48" fill="white"/>
</clipPath>
</defs>
</svg>
