<svg width="150" height="68" viewBox="0 0 150 68" fill="none" xmlns="http://www.w3.org/2000/svg">
<g clip-path="url(#clip0_350_1215)">
<path d="M34.9411 23.4243C34.9411 23.4243 34.9766 23.4598 34.9411 23.4243L46.1022 41.1968C46.2799 41.5167 46.5643 41.6944 46.8842 41.6944C47.1685 41.6944 47.4174 41.5522 47.5951 41.3389C47.5951 41.3389 58.223 27.7252 60.8178 25.4503C61.1733 25.166 62.6306 24.1707 62.8794 24.1352L64.1235 23.6375C64.3368 23.5664 64.5501 23.5309 64.7633 23.4598C65.1899 23.3887 65.9008 23.2821 66.6828 23.2821C67.7136 23.2821 68.851 23.602 68.9576 23.6375C70.1306 23.9219 71.6235 24.8105 72.3344 25.4148L86.0548 40.166C86.3392 40.4859 86.7657 40.6636 87.1922 40.6636C88.1164 40.6636 88.9339 40.0593 89.2183 39.2062L91.2799 33.2347C91.5643 32.4527 91.9553 31.4219 92.3818 30.3911C93.8036 27.0143 95.9719 23.993 98.7799 21.647C100.202 20.4385 101.766 19.3721 103.401 18.519L104.467 18.057C108.164 16.4574 111.754 15.2844 115.095 13.0451C115.451 12.7963 115.77 12.583 116.09 12.3698C117.228 11.5878 118.898 9.38397 118.969 9.24179C132.512 9.20625 138.235 9.09961 138.839 9.09961C138.839 9.09961 138.875 9.13516 138.839 9.13516L121.529 25.4859L107.169 29.5025L102.832 45.1423L95.1899 57.9385L84.1709 60.6754L73.0809 47.6304L67.0382 42.0498C67.0382 42.0498 67.0382 42.0498 67.0027 42.0498L57.0501 51.5404L49.2302 61.1375L40.6993 60.9598L31.5643 43.365L21.5761 25.948C21.5406 25.9124 21.505 25.8413 21.4695 25.8058L19.7278 23.4243H34.9411Z" fill="#3EDDD2"/>
<path d="M144.846 9.13515C141.789 14.8224 136.813 21.5048 131.126 25.0949C125.545 28.5783 118.649 30.1778 114.313 35.4385C110.296 40.3081 109.052 46.7062 106.386 52.3224C103.685 58.0451 99.6328 63.91 93.839 66.8958C90.3911 68.6731 86.339 68.7797 82.8556 67.0735C80.794 66.0783 78.1636 63.6257 75.8532 61.1731L68.8153 51.6115L68.211 50.7939C68.211 50.7939 67.82 50.2607 67.82 50.2252C67.3579 49.6565 67.0736 49.2655 66.4693 49.2655H66.4338C65.9361 49.2655 65.5451 49.6565 65.1897 50.1186C65.1186 50.2252 63.5546 52.2868 63.5546 52.2868L54.4551 63.8389L52.9977 65.6873C51.3627 67.3224 49.1589 68.2821 46.7774 68.2821C44.2537 68.2821 41.9788 67.2157 40.3437 65.4385C40.2371 65.2963 40.1304 65.1541 39.9883 65.0475L39.1707 63.9811L22.8556 42.4764L8.49536 23.4243H21.6115L35.7584 42.5119L41.6944 50.5096L45.1423 55.166C45.6044 55.7347 46.1375 56.1612 46.884 56.2323C46.9551 56.2323 47.0262 56.2323 47.0617 56.2323C47.6304 56.2323 48.3058 55.7347 48.839 55.2726C49.0167 55.0949 49.1944 54.9171 49.3721 54.7039L52.8556 50.3318L59.0759 42.5119L60.8532 40.2726L63.8745 36.4693C64.5854 35.7584 65.5096 35.3318 66.5048 35.2963C66.5759 35.2963 66.647 35.2963 66.6826 35.2963C67.7489 35.2963 68.6376 35.6162 69.4195 36.3626C69.6328 36.5759 84.0996 54.7039 85.4148 55.3437C85.557 55.4148 88.2229 58.8982 91.4219 55.9124C93.8034 53.7086 97.6423 45.7465 98.3176 43.4716C100.557 35.8295 103.258 32.0261 104.965 29.8934C105.64 29.0404 106.422 28.2584 107.275 27.5119C108.306 26.6233 109.266 25.9124 110.332 25.3437C110.51 25.2726 110.652 25.166 110.829 25.1304L113.033 24.2773C113.104 24.2418 113.175 24.2418 113.247 24.2062C114.135 23.8863 120.462 21.256 122.595 19.7631C123.412 19.2299 124.194 18.6257 124.941 18.0214C127.038 16.3152 128.886 14.3247 130.486 12.1565C131.268 11.0901 131.552 10.3081 132.228 9.1707C132.654 9.13515 140.652 9.06406 144.846 9.13515Z" fill="#0036BC"/>
<path d="M12.0883 18.4692L8.97175 0.0426978H10.4504L12.8845 15.0114L15.6599 0.315684H17.0931L19.9367 15.0342L22.1888 0.0426978H23.6447L20.6646 18.4692H19.3225L16.3879 3.27303L13.4988 18.4692H12.0883ZM26.098 18.4692V0.0426978H27.827V18.4692H26.098ZM31.0955 18.4692V0.0426978H32.8244V17.1726H38.0566V18.4692H31.0955ZM39.7818 18.4692V0.0426978H43.7856C45.0747 0.0426978 46.0757 0.270186 46.7884 0.725163C47.5164 1.16497 48.0321 1.79436 48.3354 2.61331C48.6387 3.43227 48.7903 4.38014 48.7903 5.45692V12.782C48.7903 13.9195 48.6387 14.9204 48.3354 15.7849C48.0321 16.6342 47.5316 17.2939 46.8339 17.764C46.1363 18.2342 45.1733 18.4692 43.9448 18.4692H39.7818ZM41.5107 17.1726H43.8311C44.8017 17.1726 45.5145 16.9754 45.9695 16.5811C46.4245 16.1716 46.7126 15.6181 46.8339 14.9204C46.9553 14.2076 47.0159 13.4038 47.0159 12.509V5.63891C47.0159 4.71379 46.9325 3.94033 46.7657 3.31853C46.614 2.68156 46.3031 2.20384 45.833 1.88535C45.378 1.5517 44.688 1.38488 43.7629 1.38488H41.5107V17.1726ZM58.5857 18.4692L55.4691 0.0426978H56.9477L59.3819 15.0114L62.1572 0.315684H63.5904L66.434 15.0342L68.6861 0.0426978H70.1421L67.162 18.4692H65.8198L62.8852 3.27303L59.9961 18.4692H58.5857ZM72.5954 18.4692V0.0426978H74.3243V18.4692H72.5954ZM77.5928 18.4692V0.0426978H78.844L84.7132 14.3517V0.0426978H86.2146V18.4692H84.9862L79.0942 4.00099V18.4692H77.5928ZM89.4116 18.4692V0.0426978H93.4153C94.7044 0.0426978 95.7054 0.270186 96.4182 0.725163C97.1461 1.16497 97.6618 1.79436 97.9651 2.61331C98.2684 3.43227 98.4201 4.38014 98.4201 5.45692V12.782C98.4201 13.9195 98.2684 14.9204 97.9651 15.7849C97.6618 16.6342 97.1613 17.2939 96.4637 17.764C95.7661 18.2342 94.803 18.4692 93.5746 18.4692H89.4116ZM91.1405 17.1726H93.4608C94.4315 17.1726 95.1443 16.9754 95.5992 16.5811C96.0542 16.1716 96.3424 15.6181 96.4637 14.9204C96.585 14.2076 96.6457 13.4038 96.6457 12.509V5.63891C96.6457 4.71379 96.5623 3.94033 96.3954 3.31853C96.2438 2.68156 95.9329 2.20384 95.4627 1.88535C95.0078 1.5517 94.3177 1.38488 93.3926 1.38488H91.1405V17.1726Z" fill="#D3E8E3"/>
</g>
<defs>
<clipPath id="clip0_350_1215">
<rect width="150" height="68" fill="white"/>
</clipPath>
</defs>
</svg>
