<svg width="50" height="50" viewBox="0 0 50 50" fill="none" xmlns="http://www.w3.org/2000/svg">
<g filter="url(#filter0_i_3_24)">
<path d="M25 49.5C38.531 49.5 49.5 38.531 49.5 25C49.5 11.469 38.531 0.5 25 0.5C11.469 0.5 0.5 11.469 0.5 25C0.5 38.531 11.469 49.5 25 49.5Z" stroke="#EAFEF9"/>
<path d="M37.1625 39H11.9625C11.1897 38.9991 10.5633 38.3728 10.5625 37.6V20.3333C10.5625 20.1524 10.6671 19.9877 10.831 19.9109C10.9948 19.834 11.1883 19.8588 11.3275 19.9745L22.7781 29.491C23.8142 30.3466 25.3118 30.3463 26.3476 29.4903L37.7972 19.9745C37.9363 19.8586 38.13 19.8336 38.294 19.9105C38.4579 19.9874 38.5626 20.1522 38.5625 20.3333V37.6C38.5617 38.3728 37.9353 38.9991 37.1625 39ZM11.4958 21.3279V37.6C11.4962 37.8576 11.7049 38.0663 11.9625 38.0667H37.1625C37.4201 38.0664 37.6289 37.8576 37.6292 37.6V21.3279L26.9435 30.2086C25.5619 31.3504 23.5642 31.3507 22.1822 30.2093L11.4958 21.3279Z" fill="#EAFEF9"/>
<path d="M11.0296 20.8C10.8264 20.8002 10.6464 20.6688 10.5846 20.4751C10.5228 20.2815 10.5935 20.0701 10.7594 19.9526L14.9594 16.9752C15.1697 16.8295 15.4581 16.8802 15.606 17.089C15.7539 17.2978 15.7061 17.5867 15.4989 17.7368L11.2989 20.7141C11.2203 20.77 11.1261 20.8001 11.0296 20.8Z" fill="#EAFEF9"/>
<path d="M38.0954 20.8C37.9989 20.8001 37.9047 20.77 37.8261 20.7141L33.6261 17.7368C33.4189 17.5867 33.3711 17.2978 33.519 17.089C33.6669 16.8802 33.9554 16.8295 34.1656 16.9752L38.3656 19.9526C38.5315 20.0701 38.6022 20.2815 38.5404 20.4751C38.4787 20.6688 38.2987 20.8002 38.0954 20.8Z" fill="#EAFEF9"/>
<path d="M28.874 14.2667C28.7774 14.2667 28.6831 14.2367 28.6044 14.1807L26.3737 12.5987C25.3382 11.7237 23.8251 11.7146 22.7792 12.5771L20.5205 14.1808C20.3845 14.2773 20.2073 14.2938 20.0557 14.2243C19.9042 14.1547 19.8013 14.0095 19.7857 13.8435C19.7702 13.6775 19.8444 13.5157 19.9805 13.4193L22.2111 11.8373C23.5895 10.7103 25.5735 10.7192 26.9416 11.8587L29.1443 13.4191C29.3103 13.5366 29.3811 13.7481 29.3193 13.9418C29.2575 14.1355 29.0773 14.267 28.874 14.2667Z" fill="#EAFEF9"/>
<path d="M11.3323 38.748C11.1357 38.7482 10.96 38.625 10.8931 38.4401C10.8262 38.2551 10.8824 38.0481 11.0337 37.9224L21.683 29.0744C21.811 28.9656 21.9875 28.934 22.1453 28.9916C22.3031 29.0492 22.4178 29.1871 22.4455 29.3528C22.4733 29.5184 22.4099 29.6862 22.2795 29.7921L11.6302 38.6401C11.5466 38.7098 11.4412 38.748 11.3323 38.748Z" fill="#EAFEF9"/>
<path d="M37.7917 38.748C37.683 38.748 37.5776 38.7099 37.4941 38.6402L26.8448 29.7922C26.7144 29.6863 26.651 29.5185 26.6788 29.3528C26.7066 29.1871 26.8212 29.0492 26.979 28.9916C27.1368 28.934 27.3134 28.9656 27.4413 29.0744L38.0904 37.9224C38.2417 38.0481 38.2979 38.2552 38.231 38.4401C38.1641 38.6251 37.9884 38.7482 37.7917 38.748Z" fill="#EAFEF9"/>
<path d="M33.896 24.2906C33.6383 24.2906 33.4294 24.0817 33.4294 23.824V14.2703C33.428 14.2801 33.4093 14.2669 33.378 14.2666H15.7474C15.7267 14.2654 15.7065 14.2726 15.6914 14.2867L15.696 23.824C15.696 24.0817 15.4871 24.2906 15.2294 24.2906C14.9716 24.2906 14.7627 24.0817 14.7627 23.824V14.2666C14.7778 13.7374 15.2181 13.32 15.7474 13.3333H33.378C33.9073 13.3201 34.3476 13.7374 34.3627 14.2666V23.824C34.3627 24.0817 34.1538 24.2906 33.896 24.2906Z" fill="#EAFEF9"/>
</g>
<defs>
<filter id="filter0_i_3_24" x="0" y="0" width="50" height="54" filterUnits="userSpaceOnUse" color-interpolation-filters="sRGB">
<feFlood flood-opacity="0" result="BackgroundImageFix"/>
<feBlend mode="normal" in="SourceGraphic" in2="BackgroundImageFix" result="shape"/>
<feColorMatrix in="SourceAlpha" type="matrix" values="0 0 0 0 0 0 0 0 0 0 0 0 0 0 0 0 0 0 127 0" result="hardAlpha"/>
<feOffset dy="4"/>
<feGaussianBlur stdDeviation="5"/>
<feComposite in2="hardAlpha" operator="arithmetic" k2="-1" k3="1"/>
<feColorMatrix type="matrix" values="0 0 0 0 0.282353 0 0 0 0 1 0 0 0 0 0.945098 0 0 0 1 0"/>
<feBlend mode="normal" in2="shape" result="effect1_innerShadow_3_24"/>
</filter>
</defs>
</svg>
