<svg width="50" height="50" viewBox="0 0 50 50" fill="none" xmlns="http://www.w3.org/2000/svg">
<g filter="url(#filter0_i_3_17)">
<path d="M36.0546 28.6343C35.3506 27.9068 34.3846 27.8759 33.5323 27.848C32.6443 27.8232 31.7631 27.6844 30.9105 27.4351C29.8747 27.1217 28.703 26.8749 27.77 27.6768C26.9476 28.3213 26.0938 28.9401 25.2739 29.583C25.23 29.6206 25.2333 29.6116 25.1814 29.5848C22.5528 28.1857 20.4013 26.0343 19.0022 23.4057C19.4789 22.543 20.3066 21.6731 20.9031 20.825C21.7621 19.7816 21.4325 18.6364 21.1422 17.6257C20.894 16.8161 20.7608 15.9757 20.7465 15.1291C20.7644 11.2603 18.2305 11.903 15.3759 11.8466C13.8165 11.8076 11.4584 11.7523 11.3788 14.3644C10.9177 25.9478 21.9125 37.382 33.5745 37.1634C36.4069 37.3895 36.865 35.6417 36.7364 33.3735C36.5629 31.7755 37.2164 30.0294 36.0546 28.6343ZM35.8236 32.539C35.8076 33.9244 36.0968 35.9957 34.7549 36.2188C29.2365 36.5808 23.5724 34.4015 19.2133 30.2459C14.6989 25.9426 12.1739 20.1603 12.285 14.387C12.327 12.998 13.1231 12.7449 14.7874 12.7449C15.5695 12.744 16.3469 12.7992 17.118 12.7599C19.1143 12.6016 19.8798 13.1198 19.8407 15.1574C19.8588 16.0792 20.0037 16.994 20.2713 17.8761C20.5329 18.7873 20.7594 19.574 20.1966 20.2573C19.5466 21.0863 18.9352 21.9314 18.2832 22.7623C18.1569 22.9091 18.081 23.0926 18.0667 23.2858C18.0525 23.4789 18.1006 23.6716 18.204 23.8354C19.6869 26.6209 21.967 28.9008 24.7526 30.3835C24.9173 30.4867 25.1107 30.5343 25.3045 30.5192C25.4982 30.5042 25.682 30.4273 25.8288 30.2999C26.6536 29.6527 27.504 29.0374 28.3285 28.3905C28.6312 28.1327 29.023 28.0039 29.4197 28.0316C30.7511 28.2672 32.1131 28.7731 33.5031 28.7537C36.3252 28.6589 35.7841 30.4428 35.8236 32.539Z" fill="#EAFEF9"/>
<path d="M34.147 22.487C34.1445 20.3534 33.2958 18.3078 31.7871 16.7991C30.2784 15.2904 28.2328 14.4417 26.0991 14.4392C25.9805 14.4415 25.8675 14.4903 25.7844 14.575C25.7013 14.6597 25.6548 14.7737 25.6548 14.8923C25.6548 15.011 25.7013 15.125 25.7844 15.2097C25.8675 15.2944 25.9805 15.3431 26.0992 15.3455C27.9926 15.3476 29.8078 16.1007 31.1466 17.4396C32.4855 18.7784 33.2386 20.5936 33.2407 22.487C33.2425 22.6061 33.291 22.7196 33.3758 22.8031C33.4606 22.8867 33.5748 22.9335 33.6939 22.9335C33.8129 22.9335 33.9271 22.8867 34.0119 22.8031C34.0967 22.7196 34.1452 22.606 34.147 22.487Z" fill="#EAFEF9"/>
<path d="M30.3607 23.2964C30.3607 23.4166 30.4084 23.5318 30.4934 23.6168C30.5784 23.7018 30.6936 23.7495 30.8138 23.7495C30.934 23.7495 31.0492 23.7018 31.1342 23.6168C31.2192 23.5318 31.2669 23.4166 31.2669 23.2964C31.2651 21.7118 30.6348 20.1927 29.5143 19.0723C28.3938 17.9519 26.8746 17.3217 25.29 17.3199C25.1699 17.3199 25.0546 17.3677 24.9696 17.4526C24.8847 17.5376 24.8369 17.6529 24.8369 17.773C24.8369 17.8932 24.8847 18.0085 24.9696 18.0934C25.0546 18.1784 25.1699 18.2262 25.29 18.2262C26.6343 18.2276 27.9232 18.7622 28.8738 19.7127C29.8244 20.6633 30.3592 21.9521 30.3607 23.2964Z" fill="#EAFEF9"/>
<path d="M24.0278 20.6533C24.0278 20.7128 24.0395 20.7717 24.0623 20.8267C24.085 20.8817 24.1184 20.9317 24.1605 20.9738C24.2026 21.0159 24.2525 21.0492 24.3075 21.072C24.3625 21.0948 24.4214 21.1064 24.481 21.1064C25.2761 21.1074 26.0384 21.4237 26.6005 21.986C27.1627 22.5483 27.479 23.3106 27.4798 24.1057C27.4798 24.2259 27.5276 24.3411 27.6125 24.4261C27.6975 24.5111 27.8128 24.5588 27.9329 24.5588C28.0531 24.5588 28.1684 24.5111 28.2533 24.4261C28.3383 24.3411 28.3861 24.2259 28.3861 24.1057C28.385 23.0703 27.9732 22.0776 27.2411 21.3454C26.509 20.6133 25.5164 20.2014 24.481 20.2002C24.4214 20.2001 24.3625 20.2118 24.3075 20.2346C24.2525 20.2573 24.2026 20.2907 24.1605 20.3328C24.1184 20.3749 24.085 20.4249 24.0623 20.4798C24.0395 20.5348 24.0278 20.5938 24.0278 20.6533Z" fill="#EAFEF9"/>
<path d="M25 49.5C38.531 49.5 49.5 38.531 49.5 25C49.5 11.469 38.531 0.5 25 0.5C11.469 0.5 0.5 11.469 0.5 25C0.5 38.531 11.469 49.5 25 49.5Z" stroke="#EAFEF9"/>
</g>
<defs>
<filter id="filter0_i_3_17" x="0" y="0" width="50" height="54" filterUnits="userSpaceOnUse" color-interpolation-filters="sRGB">
<feFlood flood-opacity="0" result="BackgroundImageFix"/>
<feBlend mode="normal" in="SourceGraphic" in2="BackgroundImageFix" result="shape"/>
<feColorMatrix in="SourceAlpha" type="matrix" values="0 0 0 0 0 0 0 0 0 0 0 0 0 0 0 0 0 0 127 0" result="hardAlpha"/>
<feOffset dy="4"/>
<feGaussianBlur stdDeviation="5"/>
<feComposite in2="hardAlpha" operator="arithmetic" k2="-1" k3="1"/>
<feColorMatrix type="matrix" values="0 0 0 0 0.282353 0 0 0 0 1 0 0 0 0 0.945098 0 0 0 1 0"/>
<feBlend mode="normal" in2="shape" result="effect1_innerShadow_3_17"/>
</filter>
</defs>
</svg>
