<svg width="51" height="50" viewBox="0 0 51 50" fill="none" xmlns="http://www.w3.org/2000/svg">
<path d="M36.4921 28.6343C35.7881 27.9068 34.8221 27.8759 33.9698 27.848C33.0818 27.8232 32.2006 27.6844 31.348 27.4351C30.3122 27.1217 29.1405 26.8749 28.2075 27.6768C27.3851 28.3213 26.5313 28.9401 25.7114 29.583C25.6675 29.6206 25.6708 29.6116 25.6189 29.5848C22.9903 28.1857 20.8388 26.0343 19.4397 23.4057C19.9164 22.543 20.7441 21.6731 21.3406 20.825C22.1996 19.7816 21.87 18.6364 21.5797 17.6257C21.3315 16.8161 21.1983 15.9757 21.184 15.1291C21.2019 11.2603 18.668 11.903 15.8134 11.8466C14.254 11.8076 11.8959 11.7523 11.8163 14.3644C11.3552 25.9478 22.35 37.382 34.012 37.1634C36.8444 37.3895 37.3025 35.6417 37.1739 33.3735C37.0004 31.7755 37.6539 30.0294 36.4921 28.6343ZM36.2611 32.539C36.2451 33.9244 36.5343 35.9957 35.1924 36.2188C29.674 36.5808 24.0099 34.4015 19.6508 30.2459C15.1364 25.9426 12.6114 20.1603 12.7225 14.387C12.7645 12.998 13.5606 12.7449 15.2249 12.7449C16.007 12.744 16.7844 12.7992 17.5555 12.7599C19.5518 12.6016 20.3173 13.1198 20.2782 15.1574C20.2963 16.0792 20.4412 16.994 20.7088 17.8761C20.9704 18.7873 21.1969 19.574 20.6341 20.2573C19.9841 21.0863 19.3727 21.9314 18.7207 22.7623C18.5944 22.9091 18.5185 23.0926 18.5042 23.2858C18.49 23.4789 18.5381 23.6716 18.6415 23.8354C20.1244 26.6209 22.4045 28.9008 25.1901 30.3835C25.3548 30.4867 25.5482 30.5343 25.742 30.5192C25.9357 30.5042 26.1195 30.4273 26.2663 30.2999C27.0911 29.6527 27.9415 29.0374 28.766 28.3905C29.0687 28.1327 29.4605 28.0039 29.8572 28.0316C31.1886 28.2672 32.5506 28.7731 33.9406 28.7537C36.7627 28.6589 36.2216 30.4428 36.2611 32.539V32.539Z" fill="#3EDDD2"/>
<path d="M34.5845 22.487C34.582 20.3534 33.7333 18.3078 32.2246 16.7991C30.7159 15.2904 28.6703 14.4417 26.5366 14.4392C26.418 14.4415 26.305 14.4903 26.2219 14.575C26.1388 14.6597 26.0923 14.7737 26.0923 14.8923C26.0923 15.011 26.1388 15.125 26.2219 15.2097C26.305 15.2944 26.418 15.3431 26.5367 15.3455C28.4301 15.3476 30.2453 16.1007 31.5841 17.4396C32.923 18.7784 33.6761 20.5936 33.6782 22.487C33.68 22.6061 33.7285 22.7196 33.8133 22.8031C33.8981 22.8867 34.0123 22.9335 34.1314 22.9335C34.2504 22.9335 34.3646 22.8867 34.4494 22.8031C34.5342 22.7196 34.5827 22.606 34.5845 22.487Z" fill="#3EDDD2"/>
<path d="M30.7982 23.2964C30.7982 23.4166 30.8459 23.5318 30.9309 23.6168C31.0159 23.7018 31.1311 23.7495 31.2513 23.7495C31.3715 23.7495 31.4867 23.7018 31.5717 23.6168C31.6567 23.5318 31.7044 23.4166 31.7044 23.2964C31.7026 21.7118 31.0723 20.1927 29.9518 19.0723C28.8313 17.9519 27.3121 17.3217 25.7275 17.3199C25.6074 17.3199 25.4921 17.3677 25.4071 17.4526C25.3222 17.5376 25.2744 17.6529 25.2744 17.773C25.2744 17.8932 25.3222 18.0085 25.4071 18.0934C25.4921 18.1784 25.6074 18.2262 25.7275 18.2262C27.0718 18.2276 28.3607 18.7622 29.3113 19.7127C30.2619 20.6633 30.7967 21.9521 30.7982 23.2964Z" fill="#3EDDD2"/>
<path d="M24.4653 20.6533C24.4653 20.7128 24.477 20.7717 24.4998 20.8267C24.5225 20.8817 24.5559 20.9317 24.598 20.9738C24.6401 21.0159 24.69 21.0492 24.745 21.072C24.8 21.0948 24.8589 21.1064 24.9185 21.1064C25.7136 21.1074 26.4759 21.4237 27.038 21.986C27.6002 22.5483 27.9165 23.3106 27.9173 24.1057C27.9173 24.2259 27.9651 24.3411 28.05 24.4261C28.135 24.5111 28.2503 24.5588 28.3704 24.5588C28.4906 24.5588 28.6059 24.5111 28.6908 24.4261C28.7758 24.3411 28.8236 24.2259 28.8236 24.1057C28.8225 23.0703 28.4107 22.0776 27.6786 21.3454C26.9465 20.6133 25.9539 20.2014 24.9185 20.2002C24.8589 20.2001 24.8 20.2118 24.745 20.2346C24.69 20.2573 24.6401 20.2907 24.598 20.3328C24.5559 20.3749 24.5225 20.4249 24.4998 20.4798C24.477 20.5348 24.4653 20.5938 24.4653 20.6533Z" fill="#3EDDD2"/>
<circle cx="25.4375" cy="25" r="24.5" stroke="#3EDDD2"/>
</svg>
