<svg width="52" height="52" viewBox="0 0 52 52" fill="none" xmlns="http://www.w3.org/2000/svg">
<g filter="url(#filter0_i_3_35)">
<path d="M26.4099 13C24.2851 13.0002 22.1949 13.538 20.3339 14.5635C18.473 15.5889 16.9017 17.0686 15.7665 18.8647C14.6313 20.6609 13.9691 22.715 13.8415 24.836C13.7139 26.9569 14.125 29.0757 15.0367 30.995L13.0116 38.5525C12.9955 38.6128 12.9955 38.6763 13.0116 38.7365C13.0278 38.7968 13.0595 38.8518 13.1036 38.8959C13.1478 38.94 13.2027 38.9717 13.263 38.9879C13.3233 39.004 13.3867 39.004 13.447 38.9879L21.0046 36.9629C22.7105 37.7737 24.577 38.1902 26.4658 38.1818C28.3546 38.1733 30.2173 37.74 31.9159 36.914C33.6145 36.088 35.1055 34.8903 36.2784 33.4099C37.4513 31.9294 38.2762 30.204 38.6918 28.3615C39.1074 26.519 39.1031 24.6066 38.6793 22.7659C38.2556 20.9253 37.4231 19.2036 36.2436 17.7283C35.0641 16.2531 33.5678 15.0621 31.8655 14.2436C30.1633 13.4251 28.2987 13.0001 26.4099 13ZM34.8091 33.9891C33.0598 35.7391 30.8077 36.8992 28.3672 37.3074C25.9267 37.7156 23.4196 37.3515 21.196 36.2659C21.119 36.2283 21.0309 36.2198 20.948 36.242L13.8577 38.1418L15.7576 31.0515C15.7797 30.9686 15.7712 30.8806 15.7336 30.8035C14.5002 28.2773 14.2025 25.3955 14.8936 22.6705C15.5847 19.9455 17.2198 17.5539 19.5081 15.9209C21.7964 14.2878 24.5897 13.5192 27.3913 13.7516C30.193 13.984 32.8214 15.2023 34.8094 17.1901C35.9124 18.2931 36.7874 19.6026 37.3844 21.0438C37.9813 22.485 38.2886 24.0297 38.2886 25.5896C38.2886 27.1495 37.9813 28.6942 37.3844 30.1354C36.7874 31.5766 35.9124 32.8861 34.8094 33.9891H34.8091ZM33.6844 28.8559L30.8976 27.1981C30.6975 27.0766 30.461 27.0296 30.2297 27.0652C29.9984 27.1008 29.787 27.2168 29.6327 27.3929L28.4564 28.7109C28.4165 28.7582 28.3621 28.7912 28.3017 28.8048C28.2413 28.8184 28.1781 28.8119 28.1217 28.7863C26.0569 27.9211 24.4148 26.279 23.5496 24.2142C23.524 24.1578 23.5176 24.0946 23.5312 24.0342C23.5448 23.9738 23.5777 23.9195 23.6251 23.8795L24.9433 22.7033C25.1193 22.549 25.2354 22.3376 25.271 22.1063C25.3066 21.8749 25.2596 21.6384 25.1381 21.4383L23.4803 18.6515C23.3883 18.4942 23.2549 18.3651 23.0944 18.2786C22.934 18.192 22.7529 18.1513 22.5709 18.1608C22.0389 18.1868 21.5142 18.295 21.0154 18.4817C20.9826 18.4938 20.9518 18.5107 20.924 18.5318C20.0682 19.1792 19.534 20.3086 19.3358 21.8889C19.3045 22.1258 19.3117 22.3662 19.3572 22.6008C19.8116 25.0256 21.1118 27.4111 23.0186 29.3177C24.9253 31.2244 27.3107 32.5246 29.7356 32.9791C29.8735 33.0057 30.0137 33.0193 30.1543 33.0197C30.2523 33.0195 30.3503 33.0131 30.4475 33.0007C32.0277 32.8026 33.1572 32.2682 33.8046 31.4125C33.8256 31.3847 33.8425 31.3539 33.8546 31.3211C34.0412 30.8222 34.1494 30.2974 34.1753 29.7654C34.185 29.5833 34.1443 29.4021 34.0577 29.2416C33.9711 29.0812 33.842 28.9477 33.6844 28.8559ZM33.2056 31.0243C32.6716 31.6977 31.7142 32.1251 30.3587 32.295C30.1948 32.3171 30.0284 32.3121 29.8661 32.2803C25.1559 31.3977 20.9383 27.1802 20.0557 22.4699C20.0239 22.3077 20.0189 22.1413 20.041 21.9774C20.2109 20.6219 20.6384 19.6644 21.3118 19.1305C21.7267 18.9803 22.1616 18.8929 22.6023 18.8712C22.6559 18.8671 22.7095 18.8785 22.7568 18.904C22.8041 18.9295 22.843 18.9681 22.8691 19.0151L24.5269 21.8018C24.5625 21.8605 24.5763 21.9299 24.5658 21.9977C24.5554 22.0656 24.5213 22.1276 24.4697 22.1729L23.1517 23.3492C22.9936 23.4878 22.8835 23.6729 22.8373 23.878C22.7911 24.0832 22.8111 24.2976 22.8945 24.4906C23.8314 26.7267 25.6097 28.5049 27.8457 29.4418C28.0387 29.5252 28.2531 29.5453 28.4582 29.4991C28.6633 29.4528 28.8485 29.3427 28.987 29.1846L30.1631 27.8662C30.2083 27.8146 30.2704 27.7805 30.3382 27.7701C30.4061 27.7596 30.4755 27.7734 30.5342 27.8091L33.321 29.4669C33.368 29.4929 33.4066 29.5319 33.4321 29.5792C33.4576 29.6265 33.469 29.6801 33.4648 29.7337C33.4431 30.1744 33.3557 30.6094 33.2054 31.0242L33.2056 31.0243Z" fill="#EAFEF9"/>
<path d="M1 26C1 39.8071 12.1929 51 26 51C39.8071 51 51 39.8071 51 26C51 12.1929 39.8071 1 26 1C12.1929 1 1 12.1929 1 26Z" stroke="#EAFEF9"/>
</g>
<defs>
<filter id="filter0_i_3_35" x="0.5" y="0.5" width="51" height="55" filterUnits="userSpaceOnUse" color-interpolation-filters="sRGB">
<feFlood flood-opacity="0" result="BackgroundImageFix"/>
<feBlend mode="normal" in="SourceGraphic" in2="BackgroundImageFix" result="shape"/>
<feColorMatrix in="SourceAlpha" type="matrix" values="0 0 0 0 0 0 0 0 0 0 0 0 0 0 0 0 0 0 127 0" result="hardAlpha"/>
<feOffset dy="4"/>
<feGaussianBlur stdDeviation="5"/>
<feComposite in2="hardAlpha" operator="arithmetic" k2="-1" k3="1"/>
<feColorMatrix type="matrix" values="0 0 0 0 0.282353 0 0 0 0 1 0 0 0 0 0.945098 0 0 0 1 0"/>
<feBlend mode="normal" in2="shape" result="effect1_innerShadow_3_35"/>
</filter>
</defs>
</svg>
