<svg width="42" height="42" viewBox="0 0 42 42" fill="none" xmlns="http://www.w3.org/2000/svg">
<g clip-path="url(#clip0_409_2515)">
<path d="M1 21C1 32.0457 9.95431 41 21 41C32.0457 41 41 32.0457 41 21C41 9.95431 32.0457 1 21 1C9.95431 1 1 9.95431 1 21Z" stroke="#3EDDD2"/>
<g clip-path="url(#clip1_409_2515)">
<path d="M21.347 10C19.5491 10.0002 17.7805 10.4553 16.2058 11.3229C14.6311 12.1906 13.3016 13.4427 12.3411 14.9625C11.3805 16.4823 10.8202 18.2204 10.7122 20.0151C10.6042 21.8097 10.9521 23.6025 11.7235 25.2265L10.01 31.6214C9.99634 31.6724 9.99634 31.7261 10.01 31.7771C10.0237 31.8281 10.0505 31.8746 10.0879 31.9119C10.1252 31.9492 10.1717 31.9761 10.2227 31.9897C10.2737 32.0034 10.3274 32.0034 10.3784 31.9897L16.7733 30.2763C18.2168 30.9623 19.7961 31.3148 21.3943 31.3077C22.9925 31.3005 24.5686 30.9339 26.0059 30.2349C27.4432 29.536 28.7048 28.5226 29.6973 27.2699C30.6898 26.0172 31.3877 24.5572 31.7394 22.9982C32.091 21.4391 32.0874 19.8209 31.7288 18.2635C31.3703 16.706 30.6659 15.2492 29.6678 14.0009C28.6698 12.7526 27.4037 11.7448 25.9633 11.0523C24.523 10.3597 22.9452 10.0001 21.347 10V10ZM28.454 27.76C26.9738 29.2408 25.0682 30.2224 23.0032 30.5678C20.9381 30.9132 18.8168 30.6051 16.9353 29.6866C16.8701 29.6547 16.7955 29.6475 16.7254 29.6663L10.726 31.2738L12.3335 25.2743C12.3522 25.2042 12.345 25.1297 12.3132 25.0645C11.2695 22.9269 11.0177 20.4885 11.6025 18.1827C12.1873 15.877 13.5708 13.8533 15.507 12.4715C17.4433 11.0897 19.8068 10.4393 22.1774 10.6359C24.5481 10.8326 26.7721 11.8635 28.4543 13.5455C29.3876 14.4788 30.128 15.5869 30.6331 16.8063C31.1382 18.0258 31.3982 19.3328 31.3982 20.6527C31.3982 21.9727 31.1382 23.2797 30.6331 24.4992C30.128 25.7186 29.3876 26.8267 28.4543 27.76H28.454ZM27.5024 23.4166L25.1443 22.0138C24.975 21.911 24.7749 21.8712 24.5791 21.9013C24.3834 21.9315 24.2045 22.0296 24.074 22.1786L23.0787 23.2938C23.0449 23.3339 22.9989 23.3618 22.9478 23.3733C22.8967 23.3848 22.8432 23.3793 22.7954 23.3577C21.0483 22.6255 19.6589 21.2361 18.9268 19.489C18.9051 19.4412 18.8996 19.3878 18.9112 19.3366C18.9227 19.2855 18.9506 19.2395 18.9906 19.2057L20.106 18.2105C20.255 18.08 20.3532 17.9011 20.3833 17.7053C20.4135 17.5096 20.3736 17.3094 20.2709 17.1401L18.8681 14.7821C18.7903 14.6489 18.6774 14.5397 18.5416 14.4665C18.4059 14.3933 18.2526 14.3588 18.0986 14.3669C17.6485 14.3888 17.2045 14.4804 16.7824 14.6384C16.7547 14.6486 16.7286 14.6629 16.7051 14.6807C15.981 15.2285 15.5289 16.1842 15.3612 17.5213C15.3347 17.7218 15.3408 17.9252 15.3794 18.1238C15.7638 20.1755 16.864 22.194 18.4774 23.8073C20.0908 25.4207 22.1092 26.5208 24.161 26.9054C24.2778 26.9279 24.3964 26.9394 24.5153 26.9397C24.5983 26.9395 24.6812 26.9342 24.7635 26.9236C26.1005 26.7561 27.0562 26.3038 27.604 25.5798C27.6219 25.5563 27.6361 25.5302 27.6464 25.5025C27.8043 25.0803 27.8958 24.6363 27.9177 24.1861C27.926 24.032 27.8915 23.8787 27.8183 23.7429C27.745 23.6072 27.6357 23.4942 27.5024 23.4166V23.4166ZM27.0972 25.2513C26.6454 25.8211 25.8353 26.1828 24.6883 26.3266C24.5496 26.3452 24.4088 26.341 24.2715 26.3141C20.2859 25.5673 16.7172 21.9986 15.9704 18.013C15.9435 17.8757 15.9392 17.7349 15.9579 17.5962C16.1017 16.4493 16.4634 15.6391 17.0332 15.1873C17.3843 15.0602 17.7523 14.9863 18.1252 14.9679C18.1705 14.9645 18.2159 14.9741 18.2559 14.9957C18.2959 15.0173 18.3289 15.0499 18.3509 15.0897L19.7537 17.4477C19.7838 17.4974 19.7955 17.5561 19.7866 17.6135C19.7778 17.6709 19.749 17.7234 19.7053 17.7617L18.5901 18.757C18.4563 18.8743 18.3631 19.0309 18.324 19.2045C18.2849 19.3781 18.3019 19.5595 18.3725 19.7228C19.1652 21.6149 20.6699 23.1195 22.5619 23.9123C22.7252 23.9829 22.9067 23.9999 23.0802 23.9607C23.2538 23.9216 23.4104 23.8285 23.5276 23.6947L24.5228 22.5791C24.5611 22.5354 24.6135 22.5066 24.671 22.4978C24.7284 22.4889 24.7871 22.5006 24.8368 22.5308L27.1948 23.9336C27.2346 23.9556 27.2673 23.9885 27.2888 24.0285C27.3104 24.0686 27.3201 24.1139 27.3166 24.1593C27.2982 24.5322 27.2242 24.9002 27.097 25.2512L27.0972 25.2513Z" fill="#3EDDD2"/>
</g>
</g>
<defs>
<clipPath id="clip0_409_2515">
<rect width="768" height="1498" fill="white" transform="translate(-59 -571)"/>
</clipPath>
<clipPath id="clip1_409_2515">
<rect width="22" height="22" fill="white" transform="translate(10 10)"/>
</clipPath>
</defs>
</svg>
